<svg width="720" height="421" viewBox="0 0 720 421" fill="none" xmlns="http://www.w3.org/2000/svg">
<g filter="url(#filter0_d_1220_872)">
<rect x="45.9792" y="29" width="628.041" height="363.45" rx="20" fill="white"/>
</g>
<g filter="url(#filter1_d_1220_872)">
<path d="M45.9792 46.3957C45.9792 36.7883 53.7676 29 63.3749 29H656.625C666.232 29 674.021 36.7883 674.021 46.3957V46.3957H45.9792V46.3957Z" fill="#EFEFEF"/>
</g>
<path d="M60.5691 62.7163C60.5691 57.554 64.754 53.3691 69.9163 53.3691H541.39C546.552 53.3691 550.737 57.554 550.737 62.7163V62.7163C550.737 67.8786 546.552 72.0635 541.39 72.0635H69.9163C64.754 72.0635 60.5691 67.8786 60.5691 62.7163V62.7163Z" fill="#EFEFEF"/>
<path d="M261.728 127.492C261.728 119.76 267.996 113.492 275.728 113.492H444.272C452.004 113.492 458.272 119.76 458.272 127.492V153.81C458.272 161.542 452.004 167.81 444.272 167.81H275.728C267.996 167.81 261.728 161.542 261.728 153.81V127.492Z" fill="#E9FFF7"/>
<path d="M216.587 212.958C216.587 199.151 227.78 187.958 241.587 187.958V187.958C255.395 187.958 266.587 199.151 266.587 212.958V212.958C266.587 226.765 255.395 237.958 241.587 237.958V237.958C227.78 237.958 216.587 226.765 216.587 212.958V212.958Z" fill="#FFEAEA"/>
<path d="M216.587 282.958C216.587 269.151 227.78 257.958 241.587 257.958V257.958C255.395 257.958 266.587 269.151 266.587 282.958V282.958C266.587 296.765 255.395 307.958 241.587 307.958V307.958C227.78 307.958 216.587 296.765 216.587 282.958V282.958Z" fill="#F2F5FF"/>
<path d="M295.196 212.958C295.196 199.151 306.389 187.958 320.196 187.958V187.958C334.003 187.958 345.196 199.151 345.196 212.958V212.958C345.196 226.765 334.003 237.958 320.196 237.958V237.958C306.389 237.958 295.196 226.765 295.196 212.958V212.958Z" fill="#FFF4E4"/>
<path d="M295.196 282.958C295.196 269.151 306.389 257.958 320.196 257.958V257.958C334.003 257.958 345.196 269.151 345.196 282.958V282.958C345.196 296.765 334.003 307.958 320.196 307.958V307.958C306.389 307.958 295.196 296.765 295.196 282.958V282.958Z" fill="#F9F3FF"/>
<path d="M373.804 212.958C373.804 199.151 384.997 187.958 398.804 187.958V187.958C412.611 187.958 423.804 199.151 423.804 212.958V212.958C423.804 226.765 412.611 237.958 398.804 237.958V237.958C384.997 237.958 373.804 226.765 373.804 212.958V212.958Z" fill="#ECFFE9"/>
<path d="M373.804 282.958C373.804 269.151 384.997 257.958 398.804 257.958V257.958C412.611 257.958 423.804 269.151 423.804 282.958V282.958C423.804 296.765 412.611 307.958 398.804 307.958V307.958C384.997 307.958 373.804 296.765 373.804 282.958V282.958Z" fill="#FFF5FE"/>
<path d="M452.413 212.958C452.413 199.151 463.605 187.958 477.413 187.958V187.958C491.22 187.958 502.413 199.151 502.413 212.958V212.958C502.413 226.765 491.22 237.958 477.413 237.958V237.958C463.605 237.958 452.413 226.765 452.413 212.958V212.958Z" fill="#EAFFFE"/>
<path d="M452.413 282.958C452.413 269.151 463.605 257.958 477.413 257.958V257.958C491.22 257.958 502.413 269.151 502.413 282.958V282.958C502.413 296.765 491.22 307.958 477.413 307.958V307.958C463.605 307.958 452.413 296.765 452.413 282.958V282.958Z" fill="#FFEEF1"/>
<path d="M70.4827 60.3089C70.4827 58.5181 71.9344 57.0664 73.7251 57.0664V57.0664C75.5159 57.0664 76.9676 58.5181 76.9676 60.3089V65.1233C76.9676 66.914 75.5159 68.3657 73.7251 68.3657V68.3657C71.9344 68.3657 70.4827 66.914 70.4827 65.1233V60.3089Z" fill="#E0E0E0"/>
<path d="M104.235 60.3089C104.235 58.5181 105.686 57.0664 107.477 57.0664V57.0664C109.268 57.0664 110.72 58.5181 110.72 60.3089V65.1233C110.72 66.914 109.268 68.3657 107.477 68.3657V68.3657C105.686 68.3657 104.235 66.914 104.235 65.1233V60.3089Z" fill="#E0E0E0"/>
<path d="M137.987 60.3089C137.987 58.5181 139.438 57.0664 141.229 57.0664V57.0664C143.02 57.0664 144.471 58.5181 144.471 60.3089V65.1233C144.471 66.914 143.02 68.3657 141.229 68.3657V68.3657C139.438 68.3657 137.987 66.914 137.987 65.1233V60.3089Z" fill="#E0E0E0"/>
<path d="M78.9207 60.3089C78.9207 58.5181 80.3723 57.0664 82.1631 57.0664V57.0664C83.9539 57.0664 85.4055 58.5181 85.4055 60.3089V65.1233C85.4055 66.914 83.9539 68.3657 82.1631 68.3657V68.3657C80.3723 68.3657 78.9207 66.914 78.9207 65.1233V60.3089Z" fill="#E0E0E0"/>
<path d="M112.673 60.3089C112.673 58.5181 114.124 57.0664 115.915 57.0664V57.0664C117.706 57.0664 119.158 58.5181 119.158 60.3089V65.1233C119.158 66.914 117.706 68.3657 115.915 68.3657V68.3657C114.124 68.3657 112.673 66.914 112.673 65.1233V60.3089Z" fill="#E0E0E0"/>
<path d="M146.425 60.3089C146.425 58.5181 147.876 57.0664 149.667 57.0664V57.0664C151.458 57.0664 152.909 58.5181 152.909 60.3089V65.1233C152.909 66.914 151.458 68.3657 149.667 68.3657V68.3657C147.876 68.3657 146.425 66.914 146.425 65.1233V60.3089Z" fill="#E0E0E0"/>
<path d="M87.3586 60.3089C87.3586 58.5181 88.8103 57.0664 90.6011 57.0664V57.0664C92.3918 57.0664 93.8435 58.5181 93.8435 60.3089V65.1233C93.8435 66.914 92.3918 68.3657 90.6011 68.3657V68.3657C88.8103 68.3657 87.3586 66.914 87.3586 65.1233V60.3089Z" fill="#E0E0E0"/>
<path d="M121.111 60.3089C121.111 58.5181 122.562 57.0664 124.353 57.0664V57.0664C126.144 57.0664 127.595 58.5181 127.595 60.3089V65.1233C127.595 66.914 126.144 68.3657 124.353 68.3657V68.3657C122.562 68.3657 121.111 66.914 121.111 65.1233V60.3089Z" fill="#E0E0E0"/>
<path d="M154.862 60.3089C154.862 58.5181 156.314 57.0664 158.105 57.0664V57.0664C159.896 57.0664 161.347 58.5181 161.347 60.3089V65.1233C161.347 66.914 159.896 68.3657 158.105 68.3657V68.3657C156.314 68.3657 154.862 66.914 154.862 65.1233V60.3089Z" fill="#E0E0E0"/>
<path d="M95.7966 60.3089C95.7966 58.5181 97.2483 57.0664 99.0391 57.0664V57.0664C100.83 57.0664 102.282 58.5181 102.282 60.3089V65.1233C102.282 66.914 100.83 68.3657 99.0391 68.3657V68.3657C97.2483 68.3657 95.7966 66.914 95.7966 65.1233V60.3089Z" fill="#E0E0E0"/>
<path d="M129.549 60.3089C129.549 58.5181 131 57.0664 132.791 57.0664V57.0664C134.582 57.0664 136.033 58.5181 136.033 60.3089V65.1233C136.033 66.914 134.582 68.3657 132.791 68.3657V68.3657C131 68.3657 129.549 66.914 129.549 65.1233V60.3089Z" fill="#E0E0E0"/>
<path d="M163.3 60.3089C163.3 58.5181 164.752 57.0664 166.543 57.0664V57.0664C168.333 57.0664 169.785 58.5181 169.785 60.3089V65.1233C169.785 66.914 168.333 68.3657 166.543 68.3657V68.3657C164.752 68.3657 163.3 66.914 163.3 65.1233V60.3089Z" fill="#E0E0E0"/>
<path d="M609.249 62.103C609.249 56.602 613.708 52.1426 619.209 52.1426H650.68C656.181 52.1426 660.641 56.602 660.641 62.103V62.103C660.641 67.604 656.181 72.0634 650.68 72.0634H619.209C613.708 72.0634 609.249 67.604 609.249 62.103V62.103Z" fill="#FEE1E1"/>
<path d="M557.55 62.103C557.55 56.602 562.01 52.1426 567.511 52.1426H567.869C573.37 52.1426 577.829 56.602 577.829 62.103V62.103C577.829 67.604 573.37 72.0634 567.869 72.0634H567.511C562.01 72.0634 557.55 67.604 557.55 62.103V62.103Z" fill="#F7F7F7"/>
<circle cx="69.0566" cy="38.3977" r="5.68189" fill="#FF0000"/>
<circle cx="87.6624" cy="38.3977" r="5.68189" fill="#FFC700"/>
<circle cx="106.268" cy="38.3977" r="5.68189" fill="#03CD3B"/>
<defs>
<filter id="filter0_d_1220_872" x="25.9792" y="9" width="668.041" height="403.45" filterUnits="userSpaceOnUse" color-interpolation-filters="sRGB">
<feFlood flood-opacity="0" result="BackgroundImageFix"/>
<feColorMatrix in="SourceAlpha" type="matrix" values="0 0 0 0 0 0 0 0 0 0 0 0 0 0 0 0 0 0 127 0" result="hardAlpha"/>
<feOffset/>
<feGaussianBlur stdDeviation="10"/>
<feComposite in2="hardAlpha" operator="out"/>
<feColorMatrix type="matrix" values="0 0 0 0 0 0 0 0 0 0 0 0 0 0 0 0 0 0 0.15 0"/>
<feBlend mode="normal" in2="BackgroundImageFix" result="effect1_dropShadow_1220_872"/>
<feBlend mode="normal" in="SourceGraphic" in2="effect1_dropShadow_1220_872" result="shape"/>
</filter>
<filter id="filter1_d_1220_872" x="45.9792" y="29" width="628.042" height="18.3958" filterUnits="userSpaceOnUse" color-interpolation-filters="sRGB">
<feFlood flood-opacity="0" result="BackgroundImageFix"/>
<feColorMatrix in="SourceAlpha" type="matrix" values="0 0 0 0 0 0 0 0 0 0 0 0 0 0 0 0 0 0 127 0" result="hardAlpha"/>
<feOffset dy="1"/>
<feComposite in2="hardAlpha" operator="out"/>
<feColorMatrix type="matrix" values="0 0 0 0 0 0 0 0 0 0 0 0 0 0 0 0 0 0 0.1 0"/>
<feBlend mode="normal" in2="BackgroundImageFix" result="effect1_dropShadow_1220_872"/>
<feBlend mode="normal" in="SourceGraphic" in2="effect1_dropShadow_1220_872" result="shape"/>
</filter>
</defs>
</svg>
