<svg xmlns="http://www.w3.org/2000/svg" width="40" height="40" viewBox="0 0 40 40" fill="none">
  <g clip-path="url(#clip0_804_1023)">
    <path d="M35.2383 19.0477H32.3812V11.4284C32.3812 9.32389 30.6761 7.61875 28.5716 7.61875H20.9523V4.76165C20.9523 2.13325 18.819 0 16.1906 0C13.5622 0 11.4284 2.13325 11.4284 4.76221V7.61932H3.80966C1.70457 7.61875 0.0191525 9.32389 0.0191525 11.4284L0.00957625 18.6664H2.8571C5.69505 18.6664 8.00011 20.9714 8.00011 23.8094C8.00011 26.6473 5.69505 28.9524 2.8571 28.9524H0.00957625L0 36.1903C0 38.2949 1.70457 40 3.80966 40H11.0476V37.1429C11.0476 34.3049 13.3521 31.9999 16.1906 31.9999C19.0291 31.9999 21.3336 34.3044 21.3336 37.1429V40H28.5722C30.6767 40 32.3812 38.2949 32.3812 36.1903V28.5716H35.2383C37.8667 28.5716 40 26.4383 40 23.8094C40 21.1804 37.8667 19.0477 35.2383 19.0477Z" fill="#CDCDCD"></path>
  </g>
  <defs>
    <clipPath id="clip0_804_1023">
      <rect width="40" height="40" fill="white"></rect>
    </clipPath>
  </defs>
</svg>