<svg xmlns="http://www.w3.org/2000/svg" width="56" height="55" viewBox="0 0 56 55" fill="none">
  <mask id="mask0_804_1360" style="mask-type:alpha" maskUnits="userSpaceOnUse" x="0" y="0" width="56" height="55">
    <rect x="0.75" width="55" height="55" fill="white"></rect>
  </mask>
  <g mask="url(#mask0_804_1360)">
    <path d="M8.91303 36.6278C7.55332 35.8633 7.55331 33.9057 8.91303 33.1411L26.2893 23.371C27.5066 22.6866 28.9928 22.6866 30.2102 23.371L47.5864 33.1411C48.9462 33.9057 48.9462 35.8633 47.5864 36.6278L30.2102 46.3979C28.9928 47.0824 27.5066 47.0824 26.2893 46.3979L8.91303 36.6278Z" fill="#0098B9"></path>
    <path d="M8.91303 29.2433C7.55332 28.4788 7.55331 26.5212 8.91303 25.7567L26.2893 15.9866C27.5066 15.3021 28.9928 15.3021 30.2102 15.9866L47.5864 25.7567C48.9462 26.5212 48.9462 28.4788 47.5864 29.2433L30.2102 39.0134C28.9928 39.6979 27.5066 39.6979 26.2893 39.0134L8.91303 29.2433Z" fill="#00B3DB"></path>
    <path d="M8.91303 21.8487C7.55332 21.0842 7.55331 19.1266 8.91303 18.3621L26.2893 8.59197C27.5066 7.9075 28.9928 7.9075 30.2102 8.59197L47.5864 18.3621C48.9462 19.1266 48.9462 21.0842 47.5864 21.8487L30.2102 31.6188C28.9928 32.3033 27.5066 32.3033 26.2893 31.6188L8.91303 21.8487Z" fill="#13D5FF"></path>
  </g>
</svg>