<svg xmlns="http://www.w3.org/2000/svg" width="56" height="56" viewBox="0 0 56 56" fill="none">
  <path d="M8.02539 14.9981C8.02539 13.7338 9.18382 12.7868 10.4229 13.038L26.955 16.3906C27.4796 16.497 28.0203 16.497 28.545 16.3906L45.0771 13.038C46.3161 12.7868 47.4745 13.7338 47.4745 14.9981V41.1287C47.4745 42.08 46.8044 42.8997 45.872 43.0888L28.545 46.6026C28.0203 46.709 27.4796 46.709 26.955 46.6026L9.6279 43.0888C8.69553 42.8997 8.02539 42.08 8.02539 41.1287V14.9981Z" fill="#11DF95"></path>
  <rect width="11.2369" height="1.50738" rx="0.753692" transform="matrix(0.977454 0.211147 -0.238449 0.971155 12.2656 19.838)" fill="#34FAB3"></rect>
  <rect width="30.2477" height="1.50738" rx="0.753692" transform="matrix(-4.37114e-08 1 -0.999608 -0.0280158 28.5034 16.4631)" fill="#00B977"></rect>
  <rect width="8.24215" height="1.50738" rx="0.753692" transform="matrix(-0.977454 0.211147 0.238449 0.971155 41.8877 37.2431)" fill="#34FAB3"></rect>
  <path d="M41.6081 13.8568L34.4707 15.2159L34.4707 34.2389C34.4707 34.54 34.871 34.6614 35.0299 34.4085L37.8198 29.9684C37.9276 29.7969 38.1767 29.7851 38.309 29.9453L41.0746 33.2934C41.2553 33.5121 41.6081 33.3948 41.6081 33.1159L41.6081 13.8568Z" fill="#34FAB3"></path>
  <rect width="11.2369" height="1.50738" rx="0.753692" transform="matrix(0.977454 0.211147 -0.238449 0.971155 12.1733 23.9418)" fill="#34FAB3"></rect>
  <rect width="11.2369" height="1.50738" rx="0.753692" transform="matrix(0.977454 0.211147 -0.238449 0.971155 12.0811 28.0453)" fill="#34FAB3"></rect>
  <rect width="11.2369" height="1.50738" rx="0.753692" transform="matrix(0.977454 0.211147 -0.238449 0.971155 11.9888 32.1488)" fill="#34FAB3"></rect>
</svg>