<svg xmlns="http://www.w3.org/2000/svg" width="56" height="56" viewBox="0 0 56 56" fill="none">
  <path d="M22.8574 13.2525C22.8574 11.5956 24.2006 10.2525 25.8574 10.2525H30.6428C32.2996 10.2525 33.6428 11.5956 33.6428 13.2525V15.6016H22.8574V13.2525Z" stroke="#E042BD" stroke-width="2"></path>
  <rect x="36.3789" y="40.9107" width="5.07996" height="2.315" rx="1.1575" transform="rotate(90 36.3789 40.9107)" fill="#E042BD"></rect>
  <rect x="22.436" y="40.9107" width="5.07996" height="2.315" rx="1.1575" transform="rotate(90 22.436 40.9107)" fill="#E042BD"></rect>
  <rect x="14.5532" y="14.1047" width="27.3937" height="28.9232" rx="4" fill="#F06ED4"></rect>
  <rect x="29.4072" y="20.5494" width="15.6081" height="2.315" rx="1.1575" transform="rotate(90 29.4072 20.5494)" fill="#FFAEED"></rect>
  <rect x="36.3789" y="20.5494" width="15.6081" height="2.315" rx="1.1575" transform="rotate(90 36.3789 20.5494)" fill="#FFAEED"></rect>
  <rect x="22.436" y="20.5494" width="15.6081" height="2.315" rx="1.1575" transform="rotate(90 22.436 20.5494)" fill="#FFAEED"></rect>
</svg>