<svg xmlns="http://www.w3.org/2000/svg" width="56" height="60" viewBox="0 0 56 60" fill="none">
  <path d="M17.2397 29.7839C17.2397 29.0999 17.9111 28.6178 18.5592 28.8363L26.9719 31.6727C27.801 31.9522 28.6988 31.9522 29.5278 31.6727L37.9405 28.8363C38.5887 28.6178 39.26 29.0999 39.26 29.7839V40.1667C39.26 41.0035 38.7391 41.7519 37.9543 42.0424L35.8869 42.8076C30.959 44.6317 25.5408 44.6317 20.6128 42.8076L18.5455 42.0424C17.7607 41.7519 17.2397 41.0035 17.2397 40.1667V29.7839Z" fill="#CB79F1"></path>
  <path d="M17.2397 38.3482L24.0649 39.9216C26.6746 40.5233 29.3857 40.535 32.0005 39.9559L39.26 38.3482V39.6324L32.2196 41.2821C29.4646 41.9277 26.5962 41.9147 23.8472 41.2441L17.2397 39.6324V38.3482Z" fill="#A845D7"></path>
  <rect x="44.4082" y="24.1784" width="2.09308" height="11.24" rx="1.04654" fill="#E9B9FF"></rect>
  <path d="M8.60235 24.1675C7.69757 23.8604 7.69756 22.5808 8.60235 22.2736L26.9641 16.0413C27.7978 15.7583 28.7016 15.7583 29.5354 16.0412L47.8971 22.2737C48.8019 22.5808 48.8019 23.8604 47.8971 24.1675L29.5354 30.3999C28.7016 30.6829 27.7978 30.6829 26.9641 30.3999L8.60235 24.1675Z" fill="#CB79F1"></path>
</svg>