<svg xmlns="http://www.w3.org/2000/svg" width="56" height="55" viewBox="0 0 56 55" fill="none">
  <rect x="8.52539" y="17.8947" width="39.4492" height="25.8185" rx="4" fill="#6BA6FF"></rect>
  <path d="M21.0181 15.2868C21.0181 13.6299 22.3612 12.2868 24.0181 12.2868H32.4819C34.1388 12.2868 35.4819 13.6299 35.4819 15.2868V19.0227H21.0181V15.2868Z" stroke="#0261EF" stroke-width="2"></path>
  <path d="M8.52539 21.8947C8.52539 19.6856 10.3163 17.8947 12.5254 17.8947H43.9746C46.1837 17.8947 47.9745 19.6856 47.9745 21.8947V27.7082C47.9745 29.9173 46.1837 31.7082 43.9745 31.7082H12.5254C10.3162 31.7082 8.52539 29.9173 8.52539 27.7082V21.8947Z" fill="#0261EF"></path>
  <rect x="23.9736" y="29.948" width="8.55237" height="3.52036" rx="1.76018" fill="#9ED1FF"></rect>
</svg>